<svg width="492" height="494" viewBox="0 0 492 494" fill="none" xmlns="http://www.w3.org/2000/svg">
<path d="M458.837 151.694C376.962 195.617 529.219 248.086 457.708 355.011C386.198 461.935 475.102 530.354 288.19 470.901C101.279 411.447 182.883 416.429 101.279 411.448C19.6756 406.466 88.9002 258.878 20.7792 207.678C-47.3417 156.478 79.3441 -78.8476 227.382 28.5961C375.42 136.04 303.909 29.021 377.452 15.3914C450.996 1.76179 540.712 107.771 458.837 151.694Z" fill="#FFD338" fill-opacity="0.3"/>
<g filter="url(#filter0_d_174_2008)">
<mask id="path-2-inside-1_174_2008" fill="white">
<path d="M130.461 315.987C125.624 322.43 119.182 327.257 112.552 329.404C105.922 331.551 99.6486 330.844 95.1105 327.437C90.5724 324.03 88.1419 318.203 88.3537 311.237C88.5654 304.272 91.402 296.739 96.2395 290.295L104.681 296.632C102.229 299.897 100.792 303.714 100.685 307.243C100.578 310.773 101.809 313.725 104.108 315.451C106.408 317.178 109.587 317.536 112.946 316.448C116.305 315.36 119.569 312.915 122.02 309.65L130.461 315.987Z"/>
</mask>
<path d="M130.461 315.987C125.624 322.43 119.182 327.257 112.552 329.404C105.922 331.551 99.6486 330.844 95.1105 327.437C90.5724 324.03 88.1419 318.203 88.3537 311.237C88.5654 304.272 91.402 296.739 96.2395 290.295L104.681 296.632C102.229 299.897 100.792 303.714 100.685 307.243C100.578 310.773 101.809 313.725 104.108 315.451C106.408 317.178 109.587 317.536 112.946 316.448C116.305 315.36 119.569 312.915 122.02 309.65L130.461 315.987Z" fill="#E0A341"/>
<path d="M130.461 315.987C125.624 322.43 119.182 327.257 112.552 329.404C105.922 331.551 99.6486 330.844 95.1105 327.437C90.5724 324.03 88.1419 318.203 88.3537 311.237C88.5654 304.272 91.402 296.739 96.2395 290.295L104.681 296.632C102.229 299.897 100.792 303.714 100.685 307.243C100.578 310.773 101.809 313.725 104.108 315.451C106.408 317.178 109.587 317.536 112.946 316.448C116.305 315.36 119.569 312.915 122.02 309.65L130.461 315.987Z" stroke="black" stroke-width="2.57126" mask="url(#path-2-inside-1_174_2008)"/>
</g>
<g filter="url(#filter1_d_174_2008)">
<path d="M103.57 171.354C110.019 223.635 157.629 260.781 209.907 254.332C262.186 247.879 299.334 200.274 292.885 147.993C286.434 95.7167 238.822 58.5682 186.546 65.0193C134.268 71.4684 97.1201 119.078 103.57 171.354Z" fill="#4A4679"/>
<path d="M103.57 171.354C110.019 223.635 157.629 260.781 209.907 254.332C262.186 247.879 299.334 200.274 292.885 147.993C286.434 95.7167 238.822 58.5682 186.546 65.0193C134.268 71.4684 97.1201 119.078 103.57 171.354" stroke="black" stroke-width="1.28974"/>
<path d="M259.263 159.176C259.263 193.597 231.364 221.494 196.947 221.494C162.527 221.494 134.626 193.597 134.626 159.176C134.626 124.756 162.527 96.8569 196.947 96.8569C231.364 96.8569 259.263 124.756 259.263 159.176Z" fill="#F8B11A" stroke="black" stroke-width="1.28974"/>
<path d="M248.987 159.176C248.987 187.916 225.69 211.218 196.949 211.218C168.206 211.218 144.907 187.916 144.907 159.176C144.907 130.439 168.206 107.135 196.949 107.135C225.69 107.135 248.987 130.439 248.987 159.176Z" fill="#F57A1A" stroke="black" stroke-width="1.28974"/>
<path d="M248.989 159.175C248.989 130.439 225.691 107.135 196.95 107.135C179.769 107.135 164.541 115.465 155.063 128.299C164.434 119.199 177.211 113.592 191.302 113.592C220.043 113.592 243.34 136.89 243.34 165.632C243.34 177.192 239.566 187.867 233.187 196.506C242.927 187.047 248.989 173.823 248.989 159.175Z" fill="#F04624" stroke="black" stroke-width="1.28974"/>
<path d="M206.739 179.046H190.876V161.528H202.717C202.717 161.528 214.558 160.69 214.558 170.285C214.558 178.84 206.739 179.046 206.739 179.046ZM190.876 139.631H199.475C199.475 139.631 208.068 138.411 208.068 146.605C208.068 153.418 202.391 153.578 202.391 153.578H190.876V139.631ZM217.313 154.876C217.313 154.876 220.939 153.418 220.88 144.659C220.791 131.2 207.259 131.845 207.259 131.845H204.473V123.25H197.336V131.845H190.876V123.25H183.739V131.845H167.844V139.304H179.36V178.233H168.652V186.179C168.652 186.179 175.728 186.179 183.739 186.179V195.102H190.876V186.179C193.143 186.179 195.342 186.179 197.336 186.179V195.102H204.473V186.177C212.581 186.14 224.467 184.877 225.908 171.583C227.37 158.122 217.313 154.876 217.313 154.876Z" fill="#FCFCD6" stroke="black" stroke-width="1.28974"/>
<path d="M250.564 92.9472H247.945V90.3253C247.945 88.925 246.809 87.7895 245.411 87.7895C244.011 87.7895 242.875 88.925 242.875 90.3253V92.9472H240.253C238.855 92.9472 237.722 94.0785 237.722 95.4808C237.722 96.8791 238.855 98.0124 240.253 98.0124H242.875V100.632C242.875 102.033 244.011 103.17 245.411 103.17C246.809 103.17 247.945 102.033 247.945 100.632V98.0124H250.564C251.965 98.0124 253.098 96.8791 253.098 95.4808C253.098 94.0785 251.965 92.9472 250.564 92.9472Z" fill="#FCFCD6" stroke="black" stroke-width="1.28974"/>
<path d="M157.752 96.9141H155.13V94.2921C155.13 92.8919 153.996 91.7564 152.598 91.7564C151.196 91.7564 150.062 92.8919 150.062 94.2921V96.9141H147.44C146.042 96.9141 144.907 98.0474 144.907 99.4477C144.907 100.848 146.042 101.979 147.44 101.979H150.062V104.601C150.062 105.999 151.196 107.135 152.598 107.135C153.996 107.135 155.13 105.999 155.13 104.601V101.979H157.752C159.152 101.979 160.285 100.848 160.285 99.4477C160.285 98.0474 159.152 96.9141 157.752 96.9141Z" fill="#FCFCD6" stroke="black" stroke-width="1.28974"/>
<path d="M134.823 208.682H132.203V206.063C132.203 204.662 131.068 203.527 129.669 203.527C128.269 203.527 127.134 204.662 127.134 206.063V208.682H124.514C123.115 208.682 121.981 209.818 121.981 211.218C121.981 212.616 123.115 213.752 124.514 213.752H127.134V216.369C127.134 217.77 128.269 218.905 129.669 218.905C131.068 218.905 132.203 217.77 132.203 216.369V213.752H134.823C136.224 213.752 137.359 212.616 137.359 211.218C137.359 209.818 136.224 208.682 134.823 208.682Z" fill="#FCFCD6" stroke="black" stroke-width="1.28974"/>
<path d="M166.805 229.567H164.183V226.947C164.183 225.547 163.049 224.411 161.649 224.411C160.251 224.411 159.113 225.547 159.113 226.947V229.567H156.495C155.095 229.567 153.96 230.705 153.96 232.102C153.96 233.5 155.095 234.636 156.495 234.636H159.113V237.254C159.113 238.657 160.251 239.791 161.649 239.791C163.049 239.791 164.183 238.657 164.183 237.254V234.636H166.805C168.205 234.636 169.338 233.5 169.338 232.102C169.338 230.705 168.205 229.567 166.805 229.567Z" fill="#FCFCD6"/>
<path d="M166.805 229.567H164.183V226.947C164.183 225.547 163.049 224.411 161.649 224.411C160.251 224.411 159.113 225.547 159.113 226.947V229.567H156.495C155.095 229.567 153.96 230.705 153.96 232.102C153.96 233.5 155.095 234.636 156.495 234.636H159.113V237.254C159.113 238.657 160.251 239.791 161.649 239.791C163.049 239.791 164.183 238.657 164.183 237.254V234.636H166.805C168.205 234.636 169.338 233.5 169.338 232.102C169.338 230.705 168.205 229.567 166.805 229.567" stroke="black" stroke-width="1.28974"/>
<path d="M282.209 186.284H279.59V183.664C279.59 182.264 278.456 181.126 277.056 181.126C275.656 181.126 274.52 182.264 274.52 183.664V186.284H271.902C270.5 186.284 269.367 187.419 269.367 188.817C269.367 190.217 270.5 191.353 271.902 191.353H274.52V193.971C274.52 195.373 275.656 196.506 277.056 196.506C278.456 196.506 279.59 195.373 279.59 193.971V191.353H282.209C283.61 191.353 284.743 190.217 284.743 188.817C284.743 187.419 283.61 186.284 282.209 186.284Z" fill="#FCFCD6" stroke="black" stroke-width="1.28974"/>
</g>
<g filter="url(#filter2_d_174_2008)">
<mask id="path-15-inside-2_174_2008" fill="white">
<path d="M358.144 178.462C355.984 170.359 356.266 161.96 358.927 155.113C361.589 148.267 366.412 143.533 372.336 141.954C378.26 140.375 384.799 142.079 390.515 146.693C396.232 151.306 400.657 158.45 402.817 166.553L391.798 169.491C390.704 165.385 388.461 161.765 385.565 159.428C382.669 157.09 379.355 156.226 376.354 157.027C373.352 157.827 370.908 160.225 369.56 163.694C368.211 167.163 368.069 171.419 369.163 175.525L358.144 178.462Z"/>
</mask>
<path d="M358.144 178.462C355.984 170.359 356.266 161.96 358.927 155.113C361.589 148.267 366.412 143.533 372.336 141.954C378.26 140.375 384.799 142.079 390.515 146.693C396.232 151.306 400.657 158.45 402.817 166.553L391.798 169.491C390.704 165.385 388.461 161.765 385.565 159.428C382.669 157.09 379.355 156.226 376.354 157.027C373.352 157.827 370.908 160.225 369.56 163.694C368.211 167.163 368.069 171.419 369.163 175.525L358.144 178.462Z" fill="#E96D67"/>
<path d="M358.144 178.462C355.984 170.359 356.266 161.96 358.927 155.113C361.589 148.267 366.412 143.533 372.336 141.954C378.26 140.375 384.799 142.079 390.515 146.693C396.232 151.306 400.657 158.45 402.817 166.553L391.798 169.491C390.704 165.385 388.461 161.765 385.565 159.428C382.669 157.09 379.355 156.226 376.354 157.027C373.352 157.827 370.908 160.225 369.56 163.694C368.211 167.163 368.069 171.419 369.163 175.525L358.144 178.462Z" stroke="black" stroke-width="2.57126" mask="url(#path-15-inside-2_174_2008)"/>
</g>
<path d="M288.927 299.818V259M269 278.284H309.497M273.821 289.533L305.64 266.07M277.035 261.571L302.426 294.997" stroke="black" stroke-width="1.28563"/>
<g filter="url(#filter3_d_174_2008)">
<path d="M431.655 304.419C427.709 280.384 405.026 264.098 380.991 268.043C356.957 271.99 340.671 294.672 344.617 318.707C348.562 342.742 371.245 359.028 395.279 355.081C419.316 351.136 435.6 328.454 431.655 304.419Z" fill="#4A4679"/>
<path d="M431.655 304.419C427.709 280.384 405.026 264.098 380.991 268.043C356.957 271.99 340.671 294.672 344.617 318.707C348.562 342.742 371.245 359.028 395.279 355.081C419.316 351.136 435.6 328.454 431.655 304.419" stroke="black" stroke-width="1.01638"/>
<path d="M423.217 317.529L421.966 317.579L421.916 316.327C421.889 315.658 421.325 315.138 420.656 315.165C419.986 315.192 419.465 315.755 419.492 316.424L419.542 317.676L418.291 317.726C417.623 317.753 417.102 318.317 417.129 318.986C417.156 319.655 417.72 320.175 418.388 320.148L419.639 320.098L419.689 321.35C419.716 322.018 420.28 322.539 420.95 322.512C421.618 322.486 422.139 321.921 422.113 321.253L422.063 320.001L423.314 319.951C423.983 319.924 424.504 319.361 424.477 318.692C424.45 318.024 423.886 317.503 423.217 317.529Z" fill="#FCFCD6" stroke="black" stroke-width="1.01638"/>
<path d="M418.523 292.12L417.271 292.17L417.221 290.918C417.195 290.249 416.631 289.728 415.962 289.755C415.293 289.782 414.773 290.346 414.799 291.015L414.85 292.267L413.597 292.317C412.929 292.344 412.409 292.908 412.435 293.578C412.462 294.245 413.026 294.765 413.694 294.739L414.946 294.689L414.996 295.94C415.023 296.61 415.586 297.131 416.256 297.104C416.925 297.077 417.445 296.513 417.418 295.843L417.368 294.592L418.619 294.542C419.289 294.515 419.809 293.951 419.782 293.284C419.756 292.614 419.192 292.093 418.523 292.12Z" fill="#FCFCD6" stroke="black" stroke-width="1.01638"/>
<path d="M353.384 314.313L352.132 314.363L352.082 313.11C352.055 312.442 351.489 311.922 350.822 311.948C350.153 311.975 349.632 312.538 349.659 313.207L349.709 314.459L348.457 314.509C347.789 314.536 347.269 315.1 347.296 315.769C347.323 316.438 347.886 316.958 348.554 316.931L349.806 316.881L349.856 318.133C349.883 318.802 350.447 319.322 351.116 319.296C351.783 319.269 352.306 318.705 352.279 318.037L352.229 316.784L353.481 316.734C354.149 316.708 354.669 316.144 354.642 315.476C354.615 314.807 354.052 314.286 353.384 314.313Z" fill="#FCFCD6" stroke="black" stroke-width="1.01638"/>
<path d="M383.854 332.177C381.881 330.22 377.77 328.973 373.054 329.161C368.34 329.35 364.341 330.92 362.531 333.029L361.394 333.074L361.496 335.63C361.629 338.943 367.017 341.416 373.533 341.156C380.05 340.896 385.226 338 385.094 334.687L384.991 332.132L383.854 332.177Z" fill="#F7AB0D" stroke="black" stroke-width="1.01638"/>
<path d="M384.99 332.132C385.123 335.443 379.947 338.339 373.43 338.599C366.914 338.86 361.525 336.386 361.393 333.074C361.261 329.761 366.434 326.865 372.951 326.605C379.468 326.344 384.858 328.818 384.99 332.132Z" fill="#FBC908" stroke="black" stroke-width="1.01638"/>
<path d="M383.648 327.014C381.675 325.058 377.563 323.812 372.848 324C368.134 324.189 364.135 325.759 362.324 327.866L361.188 327.911L361.29 330.468C361.422 333.781 366.811 336.256 373.327 335.996C379.844 335.735 385.02 332.839 384.887 329.525L384.785 326.968L383.648 327.014Z" fill="#F7AB0D" stroke="black" stroke-width="1.01638"/>
<path d="M384.784 326.968C384.916 330.282 379.741 333.178 373.224 333.438C366.707 333.698 361.319 331.225 361.187 327.911C361.054 324.599 366.228 321.703 372.744 321.443C379.261 321.182 384.652 323.656 384.784 326.968Z" fill="#FBC908" stroke="black" stroke-width="1.01638"/>
<path d="M383.438 321.759C381.466 319.804 377.354 318.557 372.638 318.745C367.924 318.934 363.925 320.505 362.115 322.611L360.978 322.657L361.08 325.213C361.213 328.527 366.601 331 373.117 330.74C379.634 330.48 384.81 327.584 384.678 324.27L384.576 321.714L383.438 321.759Z" fill="#F7AB0D" stroke="black" stroke-width="1.01638"/>
<path d="M384.576 321.714C384.708 325.027 379.532 327.923 373.015 328.184C366.499 328.444 361.111 325.969 360.978 322.657C360.846 319.344 366.02 316.448 372.536 316.187C379.053 315.927 384.443 318.401 384.576 321.714Z" fill="#FBC908" stroke="black" stroke-width="1.01638"/>
<path d="M383.231 316.598C381.258 314.641 377.146 313.394 372.431 313.583C367.717 313.771 363.718 315.342 361.907 317.45L360.771 317.495L360.873 320.052C361.005 323.364 366.394 325.838 372.91 325.577C379.427 325.317 384.603 322.421 384.47 319.109L384.368 316.552L383.231 316.598Z" fill="#F7AB0D" stroke="black" stroke-width="1.01638"/>
<path d="M384.368 316.552C384.501 319.864 379.325 322.761 372.808 323.021C366.292 323.281 360.903 320.807 360.771 317.495C360.639 314.182 365.812 311.287 372.329 311.027C378.846 310.766 384.236 313.24 384.368 316.552Z" fill="#FBC908" stroke="black" stroke-width="1.01638"/>
<path d="M383.039 311.78C381.066 309.823 376.954 308.577 372.238 308.765C367.525 308.953 363.525 310.524 361.715 312.632L360.579 312.677L360.681 315.233C360.813 318.546 366.201 321.021 372.718 320.761C379.235 320.5 384.41 317.604 384.278 314.29L384.176 311.734L383.039 311.78Z" fill="#F7AB0D" stroke="black" stroke-width="1.01638"/>
<path d="M384.175 311.734C384.307 315.047 379.132 317.942 372.614 318.203C366.098 318.463 360.71 315.99 360.578 312.677C360.445 309.364 365.619 306.468 372.135 306.207C378.652 305.947 384.043 308.421 384.175 311.734Z" fill="#FBC908" stroke="black" stroke-width="1.01638"/>
<path d="M382.829 306.524C380.856 304.568 376.745 303.321 372.029 303.509C367.315 303.698 363.316 305.269 361.506 307.376L360.369 307.422L360.471 309.978C360.604 313.292 365.992 315.765 372.508 315.505C379.025 315.245 384.201 312.349 384.069 309.035L383.967 306.479L382.829 306.524Z" fill="#F7AB0D" stroke="black" stroke-width="1.01638"/>
<path d="M383.965 306.479C384.098 309.791 378.922 312.688 372.405 312.948C365.889 313.209 360.5 310.734 360.368 307.421C360.236 304.11 365.409 301.213 371.926 300.953C378.443 300.692 383.833 303.167 383.965 306.479Z" fill="#FBC908" stroke="black" stroke-width="1.01638"/>
<path d="M382.622 301.362C380.649 299.406 376.537 298.16 371.822 298.348C367.108 298.536 363.109 300.107 361.298 302.214L360.162 302.259L360.264 304.817C360.396 308.129 365.785 310.604 372.301 310.344C378.818 310.083 383.994 307.187 383.861 303.874L383.759 301.316L382.622 301.362Z" fill="#F7AB0D" stroke="black" stroke-width="1.01638"/>
<path d="M383.76 301.316C383.893 304.629 378.717 307.525 372.2 307.786C365.684 308.046 360.295 305.571 360.163 302.259C360.031 298.947 365.204 296.051 371.721 295.79C378.238 295.53 383.628 298.004 383.76 301.316Z" fill="#FBC908"/>
<path d="M383.76 301.316C383.893 304.629 378.717 307.525 372.2 307.786C365.684 308.046 360.295 305.571 360.163 302.259C360.031 298.947 365.204 296.051 371.721 295.79C378.238 295.53 383.628 298.004 383.76 301.316" stroke="black" stroke-width="1.01638"/>
<path d="M410.813 331.532C408.842 329.576 404.727 328.329 400.013 328.518C395.3 328.706 391.297 330.277 389.491 332.384L388.352 332.43L388.454 334.986C388.586 338.299 393.977 340.774 400.492 340.513C407.01 340.253 412.185 337.356 412.052 334.044L411.95 331.487L410.813 331.532Z" fill="#F7AB0D"/>
<path d="M410.813 331.532C408.842 329.576 404.727 328.329 400.013 328.518C395.3 328.706 391.297 330.277 389.491 332.384L388.352 332.43L388.454 334.986C388.586 338.299 393.977 340.774 400.492 340.513C407.01 340.253 412.185 337.356 412.052 334.044L411.95 331.487L410.813 331.532" stroke="black" stroke-width="1.01638"/>
<path d="M411.95 331.487C412.083 334.8 406.908 337.696 400.39 337.957C393.875 338.217 388.484 335.743 388.352 332.43C388.22 329.118 393.395 326.222 399.911 325.961C406.429 325.701 411.818 328.175 411.95 331.487Z" fill="#FBC908" stroke="black" stroke-width="1.01638"/>
<path d="M410.605 326.371C408.635 324.414 404.52 323.167 399.805 323.355C395.092 323.544 391.09 325.115 389.284 327.223L388.145 327.268L388.247 329.824C388.379 333.137 393.769 335.611 400.285 335.351C406.803 335.09 411.977 332.195 411.845 328.881L411.743 326.325L410.605 326.371Z" fill="#F7AB0D"/>
<path d="M410.605 326.371C408.635 324.414 404.52 323.167 399.805 323.355C395.092 323.544 391.09 325.115 389.284 327.223L388.145 327.268L388.247 329.824C388.379 333.137 393.769 335.611 400.285 335.351C406.803 335.09 411.977 332.195 411.845 328.881L411.743 326.325L410.605 326.371" stroke="black" stroke-width="1.01638"/>
<path d="M411.743 326.326C411.875 329.637 406.701 332.534 400.183 332.794C393.667 333.055 388.277 330.58 388.145 327.268C388.012 323.956 393.188 321.059 399.703 320.799C406.221 320.538 411.611 323.013 411.743 326.326Z" fill="#FBC908" stroke="black" stroke-width="1.01638"/>
<path d="M410.397 321.116C408.426 319.16 404.311 317.912 399.597 318.101C394.884 318.289 390.881 319.861 389.075 321.967L387.936 322.013L388.038 324.57C388.171 327.883 393.561 330.358 400.076 330.097C406.594 329.837 411.769 326.94 411.636 323.627L411.534 321.07L410.397 321.116Z" fill="#F7AB0D"/>
<path d="M410.397 321.116C408.426 319.16 404.311 317.912 399.597 318.101C394.884 318.289 390.881 319.861 389.075 321.967L387.936 322.013L388.038 324.57C388.171 327.883 393.561 330.358 400.076 330.097C406.594 329.837 411.769 326.94 411.636 323.627L411.534 321.07L410.397 321.116" stroke="black" stroke-width="1.01638"/>
<path d="M411.533 321.07C411.666 324.383 406.491 327.279 399.973 327.54C393.458 327.8 388.067 325.326 387.935 322.013C387.803 318.7 392.978 315.805 399.494 315.544C406.012 315.284 411.401 317.758 411.533 321.07Z" fill="#FBC908" stroke="black" stroke-width="1.01638"/>
<path d="M410.19 315.954C408.219 313.997 404.104 312.751 399.39 312.939C394.677 313.127 390.674 314.698 388.868 316.806L387.729 316.851L387.831 319.408C387.963 322.72 393.354 325.195 399.869 324.935C406.387 324.674 411.562 321.777 411.429 318.465L411.327 315.908L410.19 315.954Z" fill="#F7AB0D"/>
<path d="M410.19 315.954C408.219 313.997 404.104 312.751 399.39 312.939C394.677 313.127 390.674 314.698 388.868 316.806L387.729 316.851L387.831 319.408C387.963 322.72 393.354 325.195 399.869 324.935C406.387 324.674 411.562 321.777 411.429 318.465L411.327 315.908L410.19 315.954" stroke="black" stroke-width="1.01638"/>
<path d="M411.327 315.908C411.46 319.221 406.285 322.117 399.767 322.377C393.251 322.637 387.861 320.164 387.729 316.851C387.597 313.539 392.772 310.642 399.287 310.382C405.806 310.121 411.195 312.596 411.327 315.908Z" fill="#FBC908" stroke="black" stroke-width="1.01638"/>
<path d="M409.996 311.135C408.025 309.179 403.911 307.932 399.196 308.121C394.483 308.309 390.48 309.88 388.675 311.987L387.535 312.033L387.638 314.589C387.77 317.902 393.16 320.377 399.675 320.116C406.194 319.856 411.368 316.959 411.236 313.647L411.134 311.09L409.996 311.135Z" fill="#F7AB0D"/>
<path d="M409.996 311.135C408.025 309.179 403.911 307.932 399.196 308.121C394.483 308.309 390.48 309.88 388.675 311.987L387.535 312.033L387.638 314.589C387.77 317.902 393.16 320.377 399.675 320.116C406.194 319.856 411.368 316.959 411.236 313.647L411.134 311.09L409.996 311.135" stroke="black" stroke-width="1.01638"/>
<path d="M411.135 311.09C411.267 314.402 406.092 317.299 399.574 317.559C393.059 317.819 387.669 315.345 387.537 312.033C387.404 308.72 392.58 305.824 399.095 305.563C405.613 305.303 411.002 307.778 411.135 311.09Z" fill="#FBC908" stroke="black" stroke-width="1.01638"/>
<path d="M409.789 305.881C407.818 303.924 403.703 302.678 398.989 302.866C394.276 303.055 390.273 304.625 388.467 306.733L387.328 306.779L387.43 309.335C387.562 312.647 392.953 315.121 399.468 314.861C405.986 314.601 411.161 311.704 411.028 308.392L410.926 305.836L409.789 305.881Z" fill="#F7AB0D"/>
<path d="M409.789 305.881C407.818 303.924 403.703 302.678 398.989 302.866C394.276 303.055 390.273 304.625 388.467 306.733L387.328 306.779L387.43 309.335C387.562 312.647 392.953 315.121 399.468 314.861C405.986 314.601 411.161 311.704 411.028 308.392L410.926 305.836L409.789 305.881" stroke="black" stroke-width="1.01638"/>
<path d="M410.924 305.836C411.057 309.149 405.882 312.044 399.364 312.305C392.849 312.565 387.458 310.091 387.326 306.779C387.194 303.465 392.369 300.569 398.885 300.309C405.403 300.049 410.792 302.522 410.924 305.836Z" fill="#FBC908" stroke="black" stroke-width="1.01638"/>
<path d="M409.582 300.719C407.611 298.762 403.496 297.515 398.781 297.703C394.068 297.892 390.066 299.463 388.26 301.571L387.121 301.616L387.223 304.173C387.355 307.486 392.745 309.96 399.261 309.7C405.779 309.439 410.953 306.543 410.821 303.23L410.719 300.673L409.582 300.719Z" fill="#F7AB0D"/>
<path d="M409.582 300.719C407.611 298.762 403.496 297.515 398.781 297.703C394.068 297.892 390.066 299.463 388.26 301.571L387.121 301.616L387.223 304.173C387.355 307.486 392.745 309.96 399.261 309.7C405.779 309.439 410.953 306.543 410.821 303.23L410.719 300.673L409.582 300.719" stroke="black" stroke-width="1.01638"/>
<path d="M410.718 300.673C410.85 303.986 405.676 306.883 399.158 307.143C392.642 307.403 387.252 304.929 387.12 301.616C386.987 298.303 392.163 295.408 398.678 295.147C405.196 294.887 410.586 297.361 410.718 300.673Z" fill="#FBC908" stroke="black" stroke-width="1.01638"/>
<path d="M409.409 296.398C407.438 294.442 403.323 293.194 398.608 293.383C393.896 293.571 389.893 295.143 388.087 297.25L386.948 297.296L387.05 299.852C387.182 303.165 392.573 305.64 399.088 305.379C405.606 305.119 410.781 302.222 410.648 298.91L410.546 296.353L409.409 296.398Z" fill="#F7AB0D"/>
<path d="M409.409 296.398C407.438 294.442 403.323 293.194 398.608 293.383C393.896 293.571 389.893 295.143 388.087 297.25L386.948 297.296L387.05 299.852C387.182 303.165 392.573 305.64 399.088 305.379C405.606 305.119 410.781 302.222 410.648 298.91L410.546 296.353L409.409 296.398" stroke="black" stroke-width="1.01638"/>
<path d="M410.546 296.353C410.679 299.666 405.504 302.562 398.986 302.822C392.47 303.082 387.08 300.609 386.948 297.296C386.816 293.983 391.991 291.088 398.507 290.827C405.025 290.567 410.414 293.041 410.546 296.353Z" fill="#FBC908" stroke="black" stroke-width="1.01638"/>
<path d="M409.199 291.144C407.228 289.189 403.114 287.94 398.399 288.129C393.686 288.317 389.683 289.89 387.878 291.996L386.738 292.042L386.84 294.598C386.973 297.911 392.363 300.385 398.878 300.124C405.396 299.864 410.571 296.968 410.439 293.656L410.337 291.099L409.199 291.144Z" fill="#F7AB0D"/>
<path d="M409.199 291.144C407.228 289.189 403.114 287.94 398.399 288.129C393.686 288.317 389.683 289.89 387.878 291.996L386.738 292.042L386.84 294.598C386.973 297.911 392.363 300.385 398.878 300.124C405.396 299.864 410.571 296.968 410.439 293.656L410.337 291.099L409.199 291.144" stroke="black" stroke-width="1.01638"/>
<path d="M410.336 291.099C410.468 294.411 405.293 297.307 398.775 297.567C392.26 297.828 386.87 295.354 386.737 292.041C386.605 288.729 391.781 285.833 398.296 285.573C404.814 285.312 410.203 287.786 410.336 291.099Z" fill="#FBC908" stroke="black" stroke-width="1.01638"/>
<path d="M408.993 285.981C407.022 284.026 402.908 282.779 398.193 282.968C393.48 283.156 389.477 284.727 387.671 286.833L386.532 286.879L386.634 289.436C386.766 292.748 392.157 295.223 398.672 294.962C405.19 294.702 410.365 291.805 410.232 288.494L410.13 285.936L408.993 285.981Z" fill="#F7AB0D"/>
<path d="M408.993 285.981C407.022 284.026 402.908 282.779 398.193 282.968C393.48 283.156 389.477 284.727 387.671 286.833L386.532 286.879L386.634 289.436C386.766 292.748 392.157 295.223 398.672 294.962C405.19 294.702 410.365 291.805 410.232 288.494L410.13 285.936L408.993 285.981" stroke="black" stroke-width="1.01638"/>
<path d="M410.131 285.936C410.264 289.249 405.089 292.146 398.571 292.406C392.056 292.666 386.665 290.192 386.533 286.879C386.401 283.568 391.576 280.671 398.092 280.411C404.61 280.15 409.999 282.625 410.131 285.936Z" fill="#FBC908" stroke="black" stroke-width="1.01638"/>
<path d="M336.82 301.589C336.073 301.618 335.325 301.295 334.84 300.654C334.052 299.615 334.258 298.133 335.298 297.346L365.678 274.345C366.657 273.604 368.046 273.738 368.867 274.658L375.653 282.281L403.723 260.716C404.758 259.922 406.241 260.115 407.035 261.151C407.83 262.184 407.635 263.666 406.601 264.461L376.79 287.364C375.809 288.118 374.41 287.987 373.589 287.062L366.789 279.428L338.148 301.111C337.749 301.414 337.285 301.57 336.82 301.589Z" fill="#FCFCD6"/>
<path d="M336.82 301.589C336.073 301.618 335.325 301.295 334.84 300.654C334.052 299.615 334.258 298.133 335.298 297.346L365.678 274.345C366.657 273.604 368.046 273.738 368.867 274.658L375.653 282.281L403.723 260.716C404.758 259.922 406.241 260.115 407.035 261.151C407.83 262.184 407.635 263.666 406.601 264.461L376.79 287.364C375.809 288.118 374.41 287.987 373.589 287.062L366.789 279.428L338.148 301.111C337.749 301.414 337.285 301.57 336.82 301.589" stroke="black" stroke-width="1.01638"/>
<path d="M407.732 272.126C407.604 272.131 407.474 272.125 407.342 272.109C406.049 271.948 405.131 270.768 405.293 269.473L406.347 261.001L397.33 261.362C396.029 261.414 394.928 260.399 394.876 259.096C394.824 257.792 395.84 256.694 397.141 256.642L408.941 256.171C409.635 256.143 410.305 256.421 410.774 256.931C411.245 257.443 411.463 258.134 411.378 258.822L409.979 270.058C409.833 271.221 408.866 272.08 407.732 272.126Z" fill="#FCFCD6"/>
<path d="M407.732 272.126C407.604 272.131 407.474 272.125 407.342 272.109C406.049 271.948 405.131 270.768 405.293 269.473L406.347 261.001L397.33 261.362C396.029 261.414 394.928 260.399 394.876 259.096C394.824 257.792 395.84 256.694 397.141 256.642L408.941 256.171C409.635 256.143 410.305 256.421 410.774 256.931C411.245 257.443 411.463 258.134 411.378 258.822L409.979 270.058C409.833 271.221 408.866 272.08 407.732 272.126" stroke="black" stroke-width="1.01638"/>
</g>
<g filter="url(#filter4_d_174_2008)">
<path d="M201.016 359.309C202.013 377.133 217.269 390.773 235.093 389.776C252.916 388.779 266.557 373.521 265.559 355.698C264.562 337.875 249.305 324.234 231.483 325.232C213.659 326.229 200.018 341.485 201.016 359.309Z" fill="#4A4679" stroke="black" stroke-width="0.638242"/>
<path d="M245.545 340.899C247.37 342.986 247.157 346.158 245.07 347.984L220.028 369.881C217.941 371.707 214.768 371.494 212.942 369.407L200.456 355.128C198.631 353.039 198.844 349.867 200.931 348.043L225.973 326.145C228.06 324.32 231.232 324.531 233.059 326.62L245.545 340.899Z" fill="#F2ECBD" stroke="black" stroke-width="0.638242"/>
<path d="M229.395 354.686L216.084 366.325L203.581 352.026L216.891 340.387L229.395 354.686Z" fill="#E0D193" stroke="black" stroke-width="0.638242"/>
<path d="M232.128 330.956L220.473 341.147L218.545 338.942L230.2 328.751L232.128 330.956Z" fill="#4A4679"/>
<path d="M232.128 330.956L220.473 341.147L218.545 338.942L230.2 328.751L232.128 330.956" stroke="black" stroke-width="0.638242"/>
<path d="M237.894 337.551L226.239 347.743L225.493 346.889L237.147 336.698L237.894 337.551Z" fill="#4A4679"/>
<path d="M237.894 337.551L226.239 347.743L225.493 346.889L237.147 336.698L237.894 337.551" stroke="black" stroke-width="0.638242"/>
<path d="M239.288 339.146L227.632 349.337L226.887 348.484L238.542 338.292L239.288 339.146Z" fill="#4A4679" stroke="black" stroke-width="0.638242"/>
<path d="M240.647 340.701L228.993 350.892L228.246 350.04L239.901 339.847L240.647 340.701Z" fill="#4A4679" stroke="black" stroke-width="0.638242"/>
<path d="M242.042 342.296L230.388 352.487L229.642 351.633L241.296 341.442L242.042 342.296Z" fill="#4A4679"/>
<path d="M242.042 342.296L230.388 352.487L229.642 351.633L241.296 341.442L242.042 342.296" stroke="black" stroke-width="0.638242"/>
<path d="M216.428 347.763C217.751 349.275 217.597 351.573 216.085 352.895C214.572 354.217 212.274 354.063 210.952 352.552C209.63 351.039 209.783 348.741 211.296 347.419C212.808 346.097 215.106 346.251 216.428 347.763Z" fill="#36252E" stroke="black" stroke-width="0.638242"/>
<path d="M217.667 351.179L214.173 354.233C212.401 355.784 212.22 358.479 213.771 360.251L217.073 364.028L226.987 355.358L223.685 351.582C222.135 349.81 219.441 349.628 217.667 351.179Z" fill="#36252E"/>
<path d="M217.667 351.179L214.173 354.233C212.401 355.784 212.22 358.479 213.771 360.251L217.073 364.028L226.987 355.358L223.685 351.582C222.135 349.81 219.441 349.628 217.667 351.179" stroke="black" stroke-width="0.638242"/>
<path d="M253.909 356.225C252.987 356.163 252.288 355.365 252.35 354.443L253.392 338.895C253.483 337.536 252.452 336.358 251.094 336.267L243.601 335.765C242.242 335.674 241.063 336.704 240.972 338.063L240.816 340.401C240.754 341.323 239.956 342.021 239.034 341.959C238.112 341.897 237.414 341.1 237.476 340.177L237.632 337.839C237.847 334.639 240.624 332.21 243.825 332.425L251.317 332.927C254.518 333.141 256.947 335.919 256.733 339.119L255.691 354.667C255.629 355.589 254.831 356.287 253.909 356.225Z" fill="#F7AB0D"/>
<path d="M253.909 356.225C252.987 356.163 252.288 355.365 252.35 354.443L253.392 338.895C253.483 337.536 252.452 336.358 251.094 336.267L243.601 335.765C242.242 335.674 241.063 336.704 240.972 338.063L240.816 340.401C240.754 341.323 239.956 342.021 239.034 341.959C238.112 341.897 237.414 341.1 237.476 340.177L237.632 337.839C237.847 334.639 240.624 332.21 243.825 332.425L251.317 332.927C254.518 333.141 256.947 335.919 256.733 339.119L255.691 354.667C255.629 355.589 254.831 356.287 253.909 356.225" stroke="black" stroke-width="0.638242"/>
<path d="M260.567 372.36C260.382 375.127 257.989 377.22 255.222 377.034L234.069 375.617C231.302 375.432 229.209 373.038 229.394 370.272L230.808 349.167C230.994 346.4 233.387 344.307 236.154 344.493L257.307 345.91C260.074 346.095 262.167 348.488 261.981 351.255L260.567 372.36Z" fill="#7FBB99"/>
<path d="M260.567 372.36C260.382 375.127 257.989 377.22 255.222 377.034L234.069 375.617C231.302 375.432 229.209 373.038 229.394 370.272L230.808 349.167C230.994 346.4 233.387 344.307 236.154 344.493L257.307 345.91C260.074 346.095 262.167 348.488 261.981 351.255L260.567 372.36" stroke="black" stroke-width="0.638242"/>
<path d="M237.85 372.476C235.082 372.291 232.99 369.897 233.175 367.13L234.589 346.026C234.623 345.524 234.73 345.046 234.898 344.599C232.748 345.048 231.07 346.876 230.916 349.174L229.502 370.279C229.317 373.046 231.409 375.439 234.177 375.624L255.329 377.041C257.595 377.193 259.607 375.817 260.365 373.795C259.927 373.886 259.471 373.925 259.002 373.893L237.85 372.476Z" fill="#4B8577"/>
<path d="M237.85 372.476C235.082 372.291 232.99 369.897 233.175 367.13L234.589 346.026C234.623 345.524 234.73 345.046 234.898 344.599C232.748 345.048 231.07 346.876 230.916 349.174L229.502 370.279C229.317 373.046 231.409 375.439 234.177 375.624L255.329 377.041C257.595 377.193 259.607 375.817 260.365 373.795C259.927 373.886 259.471 373.925 259.002 373.893L237.85 372.476" stroke="black" stroke-width="0.638242"/>
<path d="M249.789 359.035C249.642 361.227 247.746 362.882 245.556 362.735C243.366 362.589 241.709 360.696 241.856 358.503C242.002 356.314 243.898 354.656 246.088 354.803C248.278 354.949 249.935 356.845 249.789 359.035Z" fill="#3B3861" stroke="black" stroke-width="0.638242"/>
<path d="M246.948 367.722L243.513 367.492L244.087 358.922L247.523 359.152L246.948 367.722Z" fill="#3B3861" stroke="black" stroke-width="0.638242"/>
<path d="M236.937 382.404C236.441 382.371 235.961 382.534 235.587 382.861L231.21 386.688C230.836 387.015 230.611 387.469 230.578 387.965C230.544 388.461 230.707 388.941 231.034 389.315C231.362 389.69 231.816 389.914 232.312 389.947C232.808 389.98 233.289 389.819 233.663 389.491L238.039 385.667C238.811 384.99 238.89 383.811 238.215 383.037C237.887 382.663 237.433 382.438 236.937 382.404ZM232.172 392.035C231.118 391.965 230.155 391.487 229.46 390.693C228.764 389.898 228.42 388.879 228.491 387.825C228.561 386.771 229.038 385.808 229.834 385.113L234.21 381.287C235.004 380.591 236.022 380.247 237.077 380.318C238.131 380.389 239.094 380.865 239.79 381.66C241.224 383.302 241.057 385.805 239.416 387.241L235.04 391.066C234.245 391.761 233.226 392.106 232.172 392.035Z" fill="#FCFCD6"/>
<path d="M232.172 392.035C231.118 391.965 230.155 391.487 229.46 390.693C228.764 389.898 228.42 388.879 228.491 387.825C228.561 386.771 229.038 385.808 229.834 385.113L234.21 381.287C235.004 380.591 236.022 380.247 237.077 380.318C238.131 380.389 239.094 380.865 239.79 381.66C241.224 383.302 241.057 385.805 239.416 387.241L235.04 391.066C234.245 391.761 233.226 392.106 232.172 392.035M236.937 382.404C236.441 382.371 235.961 382.534 235.587 382.861L231.21 386.688C230.836 387.015 230.611 387.469 230.578 387.965C230.544 388.461 230.707 388.941 231.034 389.315C231.362 389.69 231.816 389.914 232.312 389.947C232.808 389.98 233.289 389.819 233.663 389.491L238.039 385.667C238.811 384.99 238.89 383.811 238.215 383.037C237.887 382.663 237.433 382.438 236.937 382.404V382.404Z" stroke="black" stroke-width="0.638242"/>
<path d="M248.739 372.085C248.242 372.052 247.762 372.214 247.388 372.541L243.012 376.367C242.638 376.695 242.413 377.148 242.38 377.644C242.346 378.141 242.509 378.621 242.836 378.995C243.164 379.37 243.618 379.595 244.114 379.628C244.61 379.661 245.09 379.499 245.464 379.171L249.84 375.345C250.215 375.017 250.439 374.563 250.472 374.067C250.505 373.571 250.344 373.092 250.016 372.717C249.688 372.343 249.234 372.118 248.739 372.085ZM243.974 381.715C242.92 381.644 241.957 381.167 241.261 380.372C240.566 379.577 240.222 378.558 240.293 377.504C240.363 376.45 240.84 375.487 241.635 374.791L246.011 370.966C246.806 370.271 247.825 369.927 248.878 369.997C249.932 370.068 250.896 370.545 251.591 371.34C252.286 372.134 252.63 373.153 252.56 374.207C252.489 375.261 252.012 376.224 251.217 376.92L246.842 380.746C246.046 381.441 245.028 381.785 243.974 381.715Z" fill="#FCFCD6"/>
<path d="M243.974 381.715C242.92 381.644 241.957 381.167 241.261 380.372C240.566 379.577 240.222 378.558 240.293 377.504C240.363 376.45 240.84 375.487 241.635 374.791L246.011 370.966C246.806 370.271 247.825 369.927 248.878 369.997C249.932 370.068 250.896 370.545 251.591 371.34C252.286 372.134 252.63 373.153 252.56 374.207C252.489 375.261 252.012 376.224 251.217 376.92L246.842 380.746C246.046 381.441 245.028 381.785 243.974 381.715M248.739 372.085C248.242 372.052 247.762 372.214 247.388 372.541L243.012 376.367C242.638 376.695 242.413 377.148 242.38 377.644C242.346 378.141 242.509 378.621 242.836 378.995C243.164 379.37 243.618 379.595 244.114 379.628C244.61 379.661 245.09 379.499 245.464 379.171L249.84 375.345C250.215 375.017 250.439 374.563 250.472 374.067C250.505 373.571 250.344 373.092 250.016 372.717C249.688 372.343 249.234 372.118 248.739 372.085V372.085Z" stroke="black" stroke-width="0.638242"/>
<path d="M260.49 361.809C259.994 361.776 259.514 361.937 259.14 362.264L254.764 366.091C254.39 366.418 254.166 366.872 254.132 367.368C254.099 367.864 254.261 368.343 254.588 368.718C254.916 369.093 255.369 369.318 255.865 369.351C256.362 369.384 256.841 369.222 257.216 368.894L261.592 365.069C262.364 364.392 262.444 363.213 261.768 362.44C261.441 362.066 260.987 361.842 260.49 361.809ZM255.725 371.439C254.671 371.368 253.708 370.89 253.013 370.094C252.318 369.3 251.974 368.282 252.044 367.228C252.115 366.175 252.592 365.211 253.388 364.516L257.763 360.69C258.558 359.994 259.576 359.651 260.63 359.721C261.684 359.792 262.648 360.268 263.343 361.063C264.778 362.704 264.61 365.208 262.969 366.644L258.594 370.469C257.799 371.164 256.78 371.509 255.725 371.439Z" fill="#FCFCD6" stroke="black" stroke-width="0.638242"/>
<path d="M238.035 384.177C237.768 384.159 237.508 384.039 237.317 383.822C236.937 383.387 236.981 382.727 237.416 382.346L242.297 378.078C242.732 377.698 243.392 377.742 243.772 378.177C244.153 378.613 244.109 379.273 243.673 379.653L238.793 383.921C238.576 384.111 238.302 384.194 238.035 384.177Z" fill="#FCFCD6" stroke="black" stroke-width="0.638242"/>
<path d="M249.54 374.117C249.273 374.099 249.012 373.979 248.822 373.761C248.442 373.326 248.486 372.666 248.921 372.285L253.802 368.018C254.237 367.638 254.897 367.682 255.278 368.117C255.658 368.552 255.614 369.213 255.179 369.593L250.298 373.86C250.08 374.051 249.807 374.135 249.54 374.117Z" fill="#FCFCD6" stroke="black" stroke-width="0.638242"/>
<path d="M257.577 356.47C256.911 356.426 256.407 355.85 256.452 355.184L256.827 349.582C256.872 348.915 257.447 348.412 258.114 348.457C258.78 348.501 259.284 349.077 259.24 349.743L258.864 355.345C258.82 356.011 258.244 356.515 257.577 356.47Z" fill="#B8D4AA" stroke="black" stroke-width="0.638242"/>
</g>
<defs>
<filter id="filter0_d_174_2008" x="88.3409" y="290.295" width="44.6915" height="42.8999" filterUnits="userSpaceOnUse" color-interpolation-filters="sRGB">
<feFlood flood-opacity="0" result="BackgroundImageFix"/>
<feColorMatrix in="SourceAlpha" type="matrix" values="0 0 0 0 0 0 0 0 0 0 0 0 0 0 0 0 0 0 127 0" result="hardAlpha"/>
<feOffset dx="2.57126" dy="2.57126"/>
<feComposite in2="hardAlpha" operator="out"/>
<feColorMatrix type="matrix" values="0 0 0 0 0 0 0 0 0 0 0 0 0 0 0 0 0 0 1 0"/>
<feBlend mode="normal" in2="BackgroundImageFix" result="effect1_dropShadow_174_2008"/>
<feBlend mode="normal" in="SourceGraphic" in2="effect1_dropShadow_174_2008" result="shape"/>
</filter>
<filter id="filter1_d_174_2008" x="97.1259" y="63.6465" width="197.132" height="197.13" filterUnits="userSpaceOnUse" color-interpolation-filters="sRGB">
<feFlood flood-opacity="0" result="BackgroundImageFix"/>
<feColorMatrix in="SourceAlpha" type="matrix" values="0 0 0 0 0 0 0 0 0 0 0 0 0 0 0 0 0 0 127 0" result="hardAlpha"/>
<feOffset dx="-5.07177" dy="5.07177"/>
<feComposite in2="hardAlpha" operator="out"/>
<feColorMatrix type="matrix" values="0 0 0 0 0 0 0 0 0 0 0 0 0 0 0 0 0 0 1 0"/>
<feBlend mode="normal" in2="BackgroundImageFix" result="effect1_dropShadow_174_2008"/>
<feBlend mode="normal" in="SourceGraphic" in2="effect1_dropShadow_174_2008" result="shape"/>
</filter>
<filter id="filter2_d_174_2008" x="356.706" y="141.379" width="48.6821" height="39.6541" filterUnits="userSpaceOnUse" color-interpolation-filters="sRGB">
<feFlood flood-opacity="0" result="BackgroundImageFix"/>
<feColorMatrix in="SourceAlpha" type="matrix" values="0 0 0 0 0 0 0 0 0 0 0 0 0 0 0 0 0 0 127 0" result="hardAlpha"/>
<feOffset dx="2.57126" dy="2.57126"/>
<feComposite in2="hardAlpha" operator="out"/>
<feColorMatrix type="matrix" values="0 0 0 0 0 0 0 0 0 0 0 0 0 0 0 0 0 0 1 0"/>
<feBlend mode="normal" in2="BackgroundImageFix" result="effect1_dropShadow_174_2008"/>
<feBlend mode="normal" in="SourceGraphic" in2="effect1_dropShadow_174_2008" result="shape"/>
</filter>
<filter id="filter3_d_174_2008" x="330.471" y="255.661" width="102.281" height="103.899" filterUnits="userSpaceOnUse" color-interpolation-filters="sRGB">
<feFlood flood-opacity="0" result="BackgroundImageFix"/>
<feColorMatrix in="SourceAlpha" type="matrix" values="0 0 0 0 0 0 0 0 0 0 0 0 0 0 0 0 0 0 127 0" result="hardAlpha"/>
<feOffset dx="-3.38118" dy="3.38118"/>
<feComposite in2="hardAlpha" operator="out"/>
<feColorMatrix type="matrix" values="0 0 0 0 0 0 0 0 0 0 0 0 0 0 0 0 0 0 1 0"/>
<feBlend mode="normal" in2="BackgroundImageFix" result="effect1_dropShadow_174_2008"/>
<feBlend mode="normal" in="SourceGraphic" in2="effect1_dropShadow_174_2008" result="shape"/>
</filter>
<filter id="filter4_d_174_2008" x="196.36" y="324.584" width="69.5701" height="70.3152" filterUnits="userSpaceOnUse" color-interpolation-filters="sRGB">
<feFlood flood-opacity="0" result="BackgroundImageFix"/>
<feColorMatrix in="SourceAlpha" type="matrix" values="0 0 0 0 0 0 0 0 0 0 0 0 0 0 0 0 0 0 127 0" result="hardAlpha"/>
<feOffset dx="-2.53589" dy="2.53589"/>
<feComposite in2="hardAlpha" operator="out"/>
<feColorMatrix type="matrix" values="0 0 0 0 0 0 0 0 0 0 0 0 0 0 0 0 0 0 1 0"/>
<feBlend mode="normal" in2="BackgroundImageFix" result="effect1_dropShadow_174_2008"/>
<feBlend mode="normal" in="SourceGraphic" in2="effect1_dropShadow_174_2008" result="shape"/>
</filter>
</defs>
</svg>
