<svg width="53" height="54" viewBox="0 0 53 54" fill="none" xmlns="http://www.w3.org/2000/svg">
<path d="M53 23.0191L39.8865 26.8393L53 30.6578L39.3437 30.6192L50.853 37.989L37.7619 34.0948L46.7339 44.4155L35.2664 36.9813L40.9753 49.4173L32.0611 39.0467L34.0428 52.5903L28.4046 40.1221L26.5 53.6785L24.5954 40.1221L18.9573 52.5903L20.9389 39.0467L12.0263 49.4173L17.7336 36.9813L6.26609 44.4155L15.2381 34.0948L2.14704 37.989L13.6563 30.6192L0 30.6578L13.1135 26.8393L0 23.0191L13.6563 23.0578L2.14704 15.6895L15.2381 19.5837L6.26609 9.26302L17.7336 16.6973L12.0263 4.26125L20.9389 14.6318L18.9573 1.08664L24.5954 13.5565L26.5 0L28.4046 13.5565L34.0428 1.08664L32.0611 14.6318L40.9753 4.26125L35.2664 16.6973L46.7339 9.26302L37.7619 19.5837L50.853 15.6895L39.3437 23.0578L53 23.0191Z" fill="#FE6600"/>
</svg>
