<svg width="250" height="65" viewBox="0 0 250 65" fill="none" xmlns="http://www.w3.org/2000/svg">
<path d="M14.5785 17.5373L8.14532 13.8271L1.70935 17.5526L1.71772 24.9813L8.13138 28.6873V21.2795L14.5785 17.5373Z" fill="white"/>
<path d="M14.5783 17.5371L8.13672 21.2793V28.6871L14.5894 24.963L14.5783 17.5371Z" fill="#F69071"/>
<path d="M16.2837 16.5446L8.13559 11.8542L0 16.5683L0.012548 25.9699L8.13698 30.6588L16.2963 25.9462L16.2837 16.5446ZM8.13698 12.7647L15.1167 16.776L8.13698 20.8194L1.18095 16.79L8.13698 12.7591V12.7647ZM0.789159 17.4732L7.7424 21.5012V29.5169L0.800313 25.5153L0.789159 17.4732ZM8.53017 29.5155V21.5068L15.5015 17.4718L15.5127 25.4916L8.53017 29.5155ZM29.3927 22.1036H28.6049V21.3214H29.3927V22.1036ZM29.3927 20.5266H28.6049V19.7389H29.3927V20.5266ZM8.55527 33.8629H7.76611V33.0751H8.55527V33.8629ZM8.55527 32.2859H7.76611V31.4982H8.55527V32.2859ZM50.1297 33.8629H49.3406V33.0751H50.1297V33.8629ZM50.1297 32.2859H49.3406V31.4982H50.1297V32.2859ZM16.9627 16.7384L16.5779 16.051L17.2653 15.6662L17.6501 16.3536L16.9627 16.7384ZM18.3389 15.9688L17.9541 15.2814L18.6414 14.8966L19.0263 15.5839L18.3389 15.9688ZM19.7136 15.1991L19.3288 14.5117L20.0176 14.1269L20.401 14.8143L19.7136 15.1991ZM20.2449 50.912L19.5575 50.5272L19.9423 49.8398L20.6297 50.2247L20.2449 50.912ZM18.8701 50.1438L18.1841 49.759L18.5689 49.0702L19.2563 49.455L18.8701 50.1438ZM17.494 49.3742L16.8066 48.9838L17.1914 48.2964L17.8788 48.6812L17.494 49.3742ZM37.7625 50.9079L37.3777 50.2205L38.0665 49.8357L38.4499 50.523L37.7625 50.9079ZM39.1387 50.1396L38.7539 49.4508L39.4412 49.066L39.826 49.7548L39.1387 50.1396ZM40.5134 49.37L40.1286 48.6826L40.8174 48.2978L41.2022 48.9852L40.5134 49.37ZM41.0586 16.7342L40.3698 16.3578L40.7546 15.6704L41.4434 16.0552L41.0586 16.7342ZM39.6824 15.9646L38.9951 15.5797L39.3799 14.8924L40.0673 15.2772L39.6824 15.9646ZM38.3077 15.1949L37.6189 14.8101L38.0037 14.1227L38.6911 14.5076L38.3077 15.1949ZM29.3927 45.1272H28.6049V44.3394H29.3927V45.1272ZM29.3927 43.5503H28.6049V42.7625H29.3927V43.5503Z" fill="black"/>
<path d="M22.582 13.127L22.5708 5.69693L29.0012 1.97144L35.4413 5.67741L35.4511 13.1075L29.0207 16.833L22.582 13.127Z" fill="white"/>
<path d="M35.4636 5.68164L29.0234 9.42527V16.833L35.4538 13.1075L35.4636 5.68164Z" fill="#F69071"/>
<path d="M37.1464 4.68894L28.9983 0L20.8627 4.71265L20.8752 14.1156L29.0234 18.8046L37.1589 14.0905L37.1464 4.68894ZM28.9997 0.910463L35.9836 4.92458L28.9983 8.96797L22.0422 4.93852L28.9997 0.910463ZM21.6518 5.62171L28.6232 9.66511V17.6682L21.6518 13.6597V5.62171ZM36.3712 13.6346L29.4165 17.6627V9.63862L36.3712 5.60917V13.6346Z" fill="black"/>
<path d="M22.5163 13.6333L22.1315 12.9446L22.8188 12.5597L23.2037 13.2485L22.5163 13.6333ZM23.891 12.8637L23.5062 12.1749L24.195 11.7915L24.5798 12.4789L23.891 12.8637ZM35.5053 13.6333L34.818 13.2485L35.2028 12.5597L35.8902 12.9446L35.5053 13.6333ZM34.1306 12.8637L33.4418 12.4789L33.8266 11.7915L34.5154 12.1749L34.1306 12.8637Z" fill="black"/>
<path d="M22.582 36.0544L22.5708 28.6271L29.0012 24.9016L35.4413 28.6076L35.4511 36.0377L29.0207 39.7632L22.582 36.0544Z" fill="white"/>
<path d="M35.4636 28.6091L29.0234 32.3528V39.7605L35.4538 36.035L35.4636 28.6091Z" fill="#F69071"/>
<path d="M28.9983 22.9275L20.8627 27.6415V37.0431L29.0234 41.7335L37.1589 37.0208V27.6164L28.9983 22.9275ZM28.9983 23.838L35.978 27.8535L28.9969 31.8969L22.0408 27.8674L28.9983 23.838ZM21.6504 28.6552L28.6218 32.5996V40.5957L21.6504 36.5872L21.6393 28.6552H21.6504ZM29.4151 40.5929V32.5661L36.3586 28.5436L36.3698 36.5649L29.4151 40.5929Z" fill="black"/>
<path d="M29.3927 28.4431H28.605V27.6512H29.3927V28.4431ZM29.3927 26.8662H28.605V26.0785H29.3927V26.8662ZM29.3927 25.2907H28.605V24.5029H29.3927V25.2907Z" fill="black"/>
<path d="M22.582 58.9821L22.5708 51.552L29.0012 47.8279L35.4413 51.5325L35.4511 58.964L29.0207 62.6881L22.582 58.9821Z" fill="white"/>
<path d="M35.4636 51.5381L29.0234 55.2803V62.6881L35.4538 58.964L35.4636 51.5381Z" fill="#F69071"/>
<path d="M37.1464 50.5439L28.9983 45.855L20.8627 50.569L20.8752 59.9706L29.0234 64.6596L37.1589 59.9469L37.1464 50.5439ZM28.9997 46.7654L35.9794 50.7823L28.9983 54.8257L22.0422 50.7963L28.9997 46.7654ZM21.6518 51.4795L28.6232 55.5229V63.5246L21.6518 59.5161L21.6407 51.4809L21.6518 51.4795ZM29.4165 63.5218V55.4936L36.36 51.4711L36.3712 59.4938L29.4165 63.5218Z" fill="black"/>
<path d="M29.3927 51.4612H28.605V50.6721H29.3927V51.4612ZM29.3927 49.8843H28.605V49.0965H29.3927V49.8843ZM29.3927 48.3088H28.605V47.521H29.3927V48.3088Z" fill="black"/>
<path d="M43.2936 24.9813L43.281 17.5512L49.7114 13.8257L56.1599 17.5317V24.9631L49.7086 28.6873L43.2936 24.9813Z" fill="white"/>
<path d="M56.1629 17.5371L49.7115 21.2793V28.6871L56.1629 24.963V17.5371Z" fill="#F69071"/>
<path d="M57.8583 16.5446L49.7102 11.8542L41.5746 16.5683L41.5871 25.9699L49.7116 30.6588L57.8709 25.9462L57.8583 16.5446ZM49.713 12.7647L56.6913 16.776L49.7116 20.8194L42.7555 16.79L49.713 12.7591V12.7647ZM42.3637 17.4732L49.317 21.5012V29.5169L42.3749 25.5153L42.3637 17.4732ZM50.1048 29.5155V21.5068L57.0761 17.4718L57.0873 25.4916L50.1048 29.5155Z" fill="black"/>
<path d="M43.2936 47.5895L43.281 40.1636L49.7142 36.4353L56.1627 40.1413V47.5714L49.7198 51.2969L43.2936 47.5895Z" fill="white"/>
<path d="M56.1628 40.1577L49.7198 43.9013V51.3091L56.1628 47.5892V40.1577Z" fill="#F69071"/>
<path d="M57.8583 39.1555L49.7102 34.4666L41.5746 39.1792L41.5871 48.5822L49.7367 53.2711L57.8723 48.5571L57.8583 39.1555ZM49.713 35.377L56.6913 39.3925L49.7199 43.4359L42.7555 39.4065L49.713 35.377ZM42.3637 40.0911L49.3254 44.1191L49.3407 52.1334L42.3693 48.1263L42.3637 40.0911ZM50.1285 52.1334L50.1131 44.1191L57.0719 40.0827L57.0831 48.1039L50.1285 52.1334Z" fill="black"/>
<path d="M50.13 40.1997H49.3409V39.4106H50.13V40.1997ZM50.13 38.6228H49.3409V37.8295H50.13V38.6228ZM50.13 37.0473H49.3409V36.2595H50.13V37.0473ZM43.3148 47.8097L42.9314 47.1223L43.6188 46.7375L44.0036 47.4249L43.3148 47.8097ZM44.691 47.04L44.3062 46.3527L44.9949 45.9679L45.3797 46.6552L44.691 47.04Z" fill="black"/>
<path d="M1.71911 47.5895L1.70935 40.1594L8.14532 36.4353L14.5855 40.1413L14.5952 47.5714L8.16484 51.2969L1.71911 47.5895Z" fill="white"/>
<path d="M14.5843 40.1577L8.14551 43.9013V51.3091L14.5717 47.5892L14.5843 40.1577Z" fill="#F69071"/>
<path d="M16.2837 39.1555L8.13559 34.4666L0 39.1792L0.012548 48.5822L8.16069 53.2711L16.2963 48.5571L16.2837 39.1555ZM8.13698 35.377L15.1167 39.3925L8.13698 43.4359L1.18095 39.4065L8.13698 35.377ZM0.789159 40.0911L7.76053 44.1344V52.1348L0.789159 48.1263V40.0911ZM8.55527 52.132V44.1038L15.4974 40.0813L15.5085 48.1026L8.55527 52.1306V52.132Z" fill="black"/>
<path d="M8.55527 40.1997H7.76611V39.4106H8.55527V40.1997ZM8.55527 38.6228H7.76611V37.8295H8.55527V38.6228ZM8.55527 37.0473H7.76611V36.2595H8.55527V37.0473ZM14.6901 47.8097L14.0013 47.4221L14.3861 46.7347L15.0749 47.1195L14.6901 47.8097ZM13.3167 47.0317L12.6293 46.6469L13.0142 45.9595L13.7015 46.3443L13.3167 47.0317Z" fill="black"/>
<path d="M88.2757 24.6124H77.2727V19.2623C77.2727 18.808 76.9194 18.4547 76.4904 18.4547H73.3106C72.8816 18.4547 72.503 18.808 72.503 19.2623V34.6565C72.503 35.0855 72.8816 35.4388 73.3106 35.4388H76.4904C76.9194 35.4388 77.2727 35.0855 77.2727 34.6565V28.4483H88.2757V34.6565C88.2757 35.0855 88.6291 35.4388 89.0581 35.4388H92.2379C92.6669 35.4388 93.0454 35.0855 93.0454 34.6565V19.2623C93.0454 18.808 92.6669 18.4547 92.2379 18.4547H89.0581C88.6291 18.4547 88.2757 18.808 88.2757 19.2623V24.6124ZM103.405 18.8333L94.1688 34.2275C93.8408 34.7827 94.2445 35.4388 94.8502 35.4388H98.1814C98.459 35.4388 98.7366 35.3126 98.8628 35.0603L100.73 31.9562H112.49L114.358 35.0603C114.484 35.3126 114.762 35.4388 115.039 35.4388H118.37C118.976 35.4388 119.38 34.7827 119.052 34.2275L109.815 18.8333C109.689 18.6062 109.412 18.4547 109.134 18.4547H104.087C103.809 18.4547 103.532 18.6062 103.405 18.8333ZM103.027 28.1203L106.61 22.1392L110.194 28.1203H103.027ZM130.386 31.8552C126.147 31.8552 123.875 30.7953 122.891 30.1896C122.563 29.9878 122.109 30.0635 121.856 30.3915L120.368 32.2843C120.09 32.6376 120.14 33.1675 120.519 33.4451C121.68 34.2527 124.632 35.7669 130.664 35.7669C137.755 35.7669 141.49 33.8237 141.49 30.0382C141.49 23.1235 125.617 26.2023 125.617 23.603C125.617 22.6187 126.929 21.7607 131.32 21.7607C134.954 21.7607 136.494 22.7449 137.099 23.4011C137.352 23.6787 137.781 23.7291 138.109 23.5272L140.279 22.215C140.708 21.9374 140.784 21.3569 140.43 20.9784C139.421 19.9437 136.923 18.1771 131.497 18.1771C124.431 18.1771 120.342 20.4736 120.342 23.7039C120.342 31.2243 136.216 27.2622 136.216 30.1644C136.216 31.3505 134.121 31.8552 130.386 31.8552ZM158.267 24.6124H147.264V19.2623C147.264 18.808 146.911 18.4547 146.482 18.4547H143.302C142.873 18.4547 142.494 18.808 142.494 19.2623V34.6565C142.494 35.0855 142.873 35.4388 143.302 35.4388H146.482C146.911 35.4388 147.264 35.0855 147.264 34.6565V28.4483H158.267V34.6565C158.267 35.0855 158.621 35.4388 159.05 35.4388H162.229C162.658 35.4388 163.037 35.0855 163.037 34.6565V19.2623C163.037 18.808 162.658 18.4547 162.229 18.4547H159.05C158.621 18.4547 158.267 18.808 158.267 19.2623V24.6124ZM164.842 22.5935H172.362V34.6565C172.362 35.0855 172.715 35.4388 173.144 35.4388H176.324C176.753 35.4388 177.107 35.0855 177.107 34.6565V22.5935H184.627C185.081 22.5935 185.435 22.2402 185.435 21.8112V19.2623C185.435 18.808 185.081 18.4547 184.627 18.4547H164.842C164.387 18.4547 164.034 18.808 164.034 19.2623V21.8112C164.034 22.2402 164.387 22.5935 164.842 22.5935ZM191.181 28.4483H200.644C201.099 28.4483 201.452 28.095 201.452 27.6408V25.42C201.452 24.9657 201.099 24.6124 200.644 24.6124H191.181V22.5935H203.345C203.799 22.5935 204.152 22.2402 204.152 21.8112V19.2623C204.152 18.808 203.799 18.4547 203.345 18.4547H187.219C186.79 18.4547 186.436 18.808 186.436 19.2623V34.6565C186.436 35.0855 186.79 35.4388 187.219 35.4388H203.774C204.203 35.4388 204.556 35.0855 204.556 34.6565V32.0824C204.556 31.6534 204.203 31.3 203.774 31.3H191.181V28.4483ZM217.119 32.1833C213.662 32.1833 210.86 30.4672 210.86 26.9846C210.86 23.4515 213.662 21.7607 217.119 21.7607C220.955 21.7607 222.721 23.3506 223.378 24.1582C223.605 24.4358 223.958 24.5367 224.261 24.4105L226.835 23.4768C227.34 23.2749 227.516 22.6692 227.214 22.2402C225.245 19.5147 221.46 18.1771 217.119 18.1771C210.734 18.1771 205.561 21.0541 205.561 26.9846C205.561 32.8395 210.734 35.7669 217.119 35.7669C221.863 35.7669 225.926 34.1265 227.693 30.871C227.945 30.442 227.743 29.912 227.289 29.7354L224.589 28.7007C224.236 28.5493 223.832 28.7007 223.63 29.0288C222.974 30.0887 221.182 32.1833 217.119 32.1833ZM244.598 24.6124H233.595V19.2623C233.595 18.808 233.242 18.4547 232.813 18.4547H229.633C229.204 18.4547 228.825 18.808 228.825 19.2623V34.6565C228.825 35.0855 229.204 35.4388 229.633 35.4388H232.813C233.242 35.4388 233.595 35.0855 233.595 34.6565V28.4483H244.598V34.6565C244.598 35.0855 244.952 35.4388 245.381 35.4388H248.56C248.989 35.4388 249.368 35.0855 249.368 34.6565V19.2623C249.368 18.808 248.989 18.4547 248.56 18.4547H245.381C244.952 18.4547 244.598 18.808 244.598 19.2623V24.6124Z" fill="#231F20"/>
</svg>
