<svg width="1598" height="786" viewBox="0 0 1598 786" fill="none" xmlns="http://www.w3.org/2000/svg">
<rect width="1597.35" height="786" fill="#FFD338"/>
<circle cx="34.3342" cy="27.9959" r="2.64113" fill="white" fill-opacity="0.5"/>
<circle cx="642.85" cy="27.9959" r="2.64113" fill="white" fill-opacity="0.5"/>
<circle cx="338.592" cy="27.9959" r="2.64113" fill="white" fill-opacity="0.5"/>
<circle cx="947.108" cy="27.9959" r="2.64113" fill="white" fill-opacity="0.5"/>
<circle cx="1403.5" cy="27.9959" r="2.64113" fill="white" fill-opacity="0.5"/>
<circle cx="186.463" cy="27.9959" r="2.64113" fill="white" fill-opacity="0.5"/>
<circle cx="794.979" cy="27.9959" r="2.64113" fill="white" fill-opacity="0.5"/>
<circle cx="1251.37" cy="27.9959" r="2.64113" fill="white" fill-opacity="0.5"/>
<circle cx="490.721" cy="27.9959" r="2.64113" fill="white" fill-opacity="0.5"/>
<circle cx="1099.24" cy="27.9959" r="2.64113" fill="white" fill-opacity="0.5"/>
<circle cx="1555.62" cy="27.9959" r="2.64113" fill="white" fill-opacity="0.5"/>
<circle cx="110.399" cy="27.9959" r="2.64113" fill="white" fill-opacity="0.5"/>
<circle cx="718.915" cy="27.9959" r="2.64113" fill="white" fill-opacity="0.5"/>
<circle cx="414.657" cy="27.9959" r="2.64113" fill="white" fill-opacity="0.5"/>
<circle cx="1023.17" cy="27.9959" r="2.64113" fill="white" fill-opacity="0.5"/>
<circle cx="1479.56" cy="27.9959" r="2.64113" fill="white" fill-opacity="0.5"/>
<circle cx="262.528" cy="27.9959" r="2.64113" fill="white" fill-opacity="0.5"/>
<circle cx="871.044" cy="27.9959" r="2.64113" fill="white" fill-opacity="0.5"/>
<circle cx="1327.43" cy="27.9959" r="2.64113" fill="white" fill-opacity="0.5"/>
<circle cx="566.786" cy="27.9959" r="2.64113" fill="white" fill-opacity="0.5"/>
<circle cx="1175.3" cy="27.9959" r="2.64113" fill="white" fill-opacity="0.5"/>
<circle cx="34.3342" cy="349.157" r="2.64113" fill="white" fill-opacity="0.5"/>
<circle cx="642.85" cy="349.157" r="2.64113" fill="white" fill-opacity="0.5"/>
<circle cx="338.592" cy="349.157" r="2.64113" fill="white" fill-opacity="0.5"/>
<circle cx="947.108" cy="349.157" r="2.64113" fill="white" fill-opacity="0.5"/>
<circle cx="1403.5" cy="349.157" r="2.64113" fill="white" fill-opacity="0.5"/>
<circle cx="186.463" cy="349.157" r="2.64113" fill="white" fill-opacity="0.5"/>
<circle cx="794.979" cy="349.157" r="2.64113" fill="white" fill-opacity="0.5"/>
<circle cx="1251.37" cy="349.157" r="2.64113" fill="white" fill-opacity="0.5"/>
<circle cx="490.721" cy="349.157" r="2.64113" fill="white" fill-opacity="0.5"/>
<circle cx="1099.24" cy="349.157" r="2.64113" fill="white" fill-opacity="0.5"/>
<circle cx="1555.62" cy="349.157" r="2.64113" fill="white" fill-opacity="0.5"/>
<circle cx="110.399" cy="349.157" r="2.64113" fill="white" fill-opacity="0.5"/>
<circle cx="718.915" cy="349.157" r="2.64113" fill="white" fill-opacity="0.5"/>
<circle cx="414.657" cy="349.157" r="2.64113" fill="white" fill-opacity="0.5"/>
<circle cx="1023.17" cy="349.157" r="2.64113" fill="white" fill-opacity="0.5"/>
<circle cx="1479.56" cy="349.157" r="2.64113" fill="white" fill-opacity="0.5"/>
<circle cx="262.528" cy="349.157" r="2.64113" fill="white" fill-opacity="0.5"/>
<circle cx="871.044" cy="349.157" r="2.64113" fill="white" fill-opacity="0.5"/>
<circle cx="1327.43" cy="349.157" r="2.64113" fill="white" fill-opacity="0.5"/>
<circle cx="566.786" cy="349.157" r="2.64113" fill="white" fill-opacity="0.5"/>
<circle cx="1175.3" cy="349.157" r="2.64113" fill="white" fill-opacity="0.5"/>
<circle cx="34.3342" cy="670.318" r="2.64113" fill="white" fill-opacity="0.5"/>
<circle cx="642.85" cy="670.318" r="2.64113" fill="white" fill-opacity="0.5"/>
<circle cx="338.592" cy="670.318" r="2.64113" fill="white" fill-opacity="0.5"/>
<circle cx="947.108" cy="670.318" r="2.64113" fill="white" fill-opacity="0.5"/>
<circle cx="1403.5" cy="670.318" r="2.64113" fill="white" fill-opacity="0.5"/>
<circle cx="186.463" cy="670.318" r="2.64113" fill="white" fill-opacity="0.5"/>
<circle cx="794.979" cy="670.318" r="2.64113" fill="white" fill-opacity="0.5"/>
<circle cx="1251.37" cy="670.318" r="2.64113" fill="white" fill-opacity="0.5"/>
<circle cx="490.721" cy="670.318" r="2.64113" fill="white" fill-opacity="0.5"/>
<circle cx="1099.24" cy="670.318" r="2.64113" fill="white" fill-opacity="0.5"/>
<circle cx="1555.62" cy="670.318" r="2.64113" fill="white" fill-opacity="0.5"/>
<circle cx="110.399" cy="670.318" r="2.64113" fill="white" fill-opacity="0.5"/>
<circle cx="718.915" cy="670.318" r="2.64113" fill="white" fill-opacity="0.5"/>
<circle cx="414.657" cy="670.318" r="2.64113" fill="white" fill-opacity="0.5"/>
<circle cx="1023.17" cy="670.318" r="2.64113" fill="white" fill-opacity="0.5"/>
<circle cx="1479.56" cy="670.318" r="2.64113" fill="white" fill-opacity="0.5"/>
<circle cx="262.528" cy="670.318" r="2.64113" fill="white" fill-opacity="0.5"/>
<circle cx="871.044" cy="670.318" r="2.64113" fill="white" fill-opacity="0.5"/>
<circle cx="1327.43" cy="670.318" r="2.64113" fill="white" fill-opacity="0.5"/>
<circle cx="566.786" cy="670.318" r="2.64113" fill="white" fill-opacity="0.5"/>
<circle cx="1175.3" cy="670.318" r="2.64113" fill="white" fill-opacity="0.5"/>
<circle cx="34.3342" cy="188.577" r="2.64113" fill="white" fill-opacity="0.5"/>
<circle cx="642.85" cy="188.577" r="2.64113" fill="white" fill-opacity="0.5"/>
<circle cx="338.592" cy="188.577" r="2.64113" fill="white" fill-opacity="0.5"/>
<circle cx="947.108" cy="188.577" r="2.64113" fill="white" fill-opacity="0.5"/>
<circle cx="1403.5" cy="188.577" r="2.64113" fill="white" fill-opacity="0.5"/>
<circle cx="186.463" cy="188.577" r="2.64113" fill="white" fill-opacity="0.5"/>
<circle cx="794.979" cy="188.577" r="2.64113" fill="white" fill-opacity="0.5"/>
<circle cx="1251.37" cy="188.577" r="2.64113" fill="white" fill-opacity="0.5"/>
<circle cx="490.721" cy="188.577" r="2.64113" fill="white" fill-opacity="0.5"/>
<circle cx="1099.24" cy="188.577" r="2.64113" fill="white" fill-opacity="0.5"/>
<circle cx="1555.62" cy="188.577" r="2.64113" fill="white" fill-opacity="0.5"/>
<circle cx="110.399" cy="188.577" r="2.64113" fill="white" fill-opacity="0.5"/>
<circle cx="718.915" cy="188.577" r="2.64113" fill="white" fill-opacity="0.5"/>
<circle cx="414.657" cy="188.577" r="2.64113" fill="white" fill-opacity="0.5"/>
<circle cx="1023.17" cy="188.577" r="2.64113" fill="white" fill-opacity="0.5"/>
<circle cx="1479.56" cy="188.577" r="2.64113" fill="white" fill-opacity="0.5"/>
<circle cx="262.528" cy="188.577" r="2.64113" fill="white" fill-opacity="0.5"/>
<circle cx="871.044" cy="188.577" r="2.64113" fill="white" fill-opacity="0.5"/>
<circle cx="1327.43" cy="188.577" r="2.64113" fill="white" fill-opacity="0.5"/>
<circle cx="566.786" cy="188.577" r="2.64113" fill="white" fill-opacity="0.5"/>
<circle cx="1175.3" cy="188.577" r="2.64113" fill="white" fill-opacity="0.5"/>
<circle cx="34.3342" cy="509.738" r="2.64113" fill="white" fill-opacity="0.5"/>
<circle cx="642.85" cy="509.738" r="2.64113" fill="white" fill-opacity="0.5"/>
<circle cx="338.592" cy="509.738" r="2.64113" fill="white" fill-opacity="0.5"/>
<circle cx="947.108" cy="509.738" r="2.64113" fill="white" fill-opacity="0.5"/>
<circle cx="1403.5" cy="509.738" r="2.64113" fill="white" fill-opacity="0.5"/>
<circle cx="186.463" cy="509.738" r="2.64113" fill="white" fill-opacity="0.5"/>
<circle cx="794.979" cy="509.738" r="2.64113" fill="white" fill-opacity="0.5"/>
<circle cx="1251.37" cy="509.738" r="2.64113" fill="white" fill-opacity="0.5"/>
<circle cx="490.721" cy="509.738" r="2.64113" fill="white" fill-opacity="0.5"/>
<circle cx="1099.24" cy="509.738" r="2.64113" fill="white" fill-opacity="0.5"/>
<circle cx="1555.62" cy="509.738" r="2.64113" fill="white" fill-opacity="0.5"/>
<circle cx="110.399" cy="509.738" r="2.64113" fill="white" fill-opacity="0.5"/>
<circle cx="718.915" cy="509.738" r="2.64113" fill="white" fill-opacity="0.5"/>
<circle cx="414.657" cy="509.738" r="2.64113" fill="white" fill-opacity="0.5"/>
<circle cx="1023.17" cy="509.738" r="2.64113" fill="white" fill-opacity="0.5"/>
<circle cx="1479.56" cy="509.738" r="2.64113" fill="white" fill-opacity="0.5"/>
<circle cx="262.528" cy="509.738" r="2.64113" fill="white" fill-opacity="0.5"/>
<circle cx="871.044" cy="509.738" r="2.64113" fill="white" fill-opacity="0.5"/>
<circle cx="1327.43" cy="509.738" r="2.64113" fill="white" fill-opacity="0.5"/>
<circle cx="566.786" cy="509.738" r="2.64113" fill="white" fill-opacity="0.5"/>
<circle cx="1175.3" cy="509.738" r="2.64113" fill="white" fill-opacity="0.5"/>
<circle cx="34.3342" cy="108.286" r="2.64113" fill="white" fill-opacity="0.5"/>
<circle cx="642.85" cy="108.286" r="2.64113" fill="white" fill-opacity="0.5"/>
<circle cx="338.592" cy="108.286" r="2.64113" fill="white" fill-opacity="0.5"/>
<circle cx="947.108" cy="108.286" r="2.64113" fill="white" fill-opacity="0.5"/>
<circle cx="1403.5" cy="108.286" r="2.64113" fill="white" fill-opacity="0.5"/>
<circle cx="186.463" cy="108.286" r="2.64113" fill="white" fill-opacity="0.5"/>
<circle cx="794.979" cy="108.286" r="2.64113" fill="white" fill-opacity="0.5"/>
<circle cx="1251.37" cy="108.286" r="2.64113" fill="white" fill-opacity="0.5"/>
<circle cx="490.721" cy="108.286" r="2.64113" fill="white" fill-opacity="0.5"/>
<circle cx="1099.24" cy="108.286" r="2.64113" fill="white" fill-opacity="0.5"/>
<circle cx="1555.62" cy="108.286" r="2.64113" fill="white" fill-opacity="0.5"/>
<circle cx="110.399" cy="108.286" r="2.64113" fill="white" fill-opacity="0.5"/>
<circle cx="718.915" cy="108.286" r="2.64113" fill="white" fill-opacity="0.5"/>
<circle cx="414.657" cy="108.286" r="2.64113" fill="white" fill-opacity="0.5"/>
<circle cx="1023.17" cy="108.286" r="2.64113" fill="white" fill-opacity="0.5"/>
<circle cx="1479.56" cy="108.286" r="2.64113" fill="white" fill-opacity="0.5"/>
<circle cx="262.528" cy="108.286" r="2.64113" fill="white" fill-opacity="0.5"/>
<circle cx="871.044" cy="108.286" r="2.64113" fill="white" fill-opacity="0.5"/>
<circle cx="1327.43" cy="108.286" r="2.64113" fill="white" fill-opacity="0.5"/>
<circle cx="566.786" cy="108.286" r="2.64113" fill="white" fill-opacity="0.5"/>
<circle cx="1175.3" cy="108.286" r="2.64113" fill="white" fill-opacity="0.5"/>
<circle cx="34.3342" cy="429.448" r="2.64113" fill="white" fill-opacity="0.5"/>
<circle cx="642.85" cy="429.448" r="2.64113" fill="white" fill-opacity="0.5"/>
<circle cx="338.592" cy="429.448" r="2.64113" fill="white" fill-opacity="0.5"/>
<circle cx="947.108" cy="429.448" r="2.64113" fill="white" fill-opacity="0.5"/>
<circle cx="1403.5" cy="429.448" r="2.64113" fill="white" fill-opacity="0.5"/>
<circle cx="186.463" cy="429.448" r="2.64113" fill="white" fill-opacity="0.5"/>
<circle cx="794.979" cy="429.448" r="2.64113" fill="white" fill-opacity="0.5"/>
<circle cx="1251.37" cy="429.448" r="2.64113" fill="white" fill-opacity="0.5"/>
<circle cx="490.721" cy="429.448" r="2.64113" fill="white" fill-opacity="0.5"/>
<circle cx="1099.24" cy="429.448" r="2.64113" fill="white" fill-opacity="0.5"/>
<circle cx="1555.62" cy="429.448" r="2.64113" fill="white" fill-opacity="0.5"/>
<circle cx="110.399" cy="429.448" r="2.64113" fill="white" fill-opacity="0.5"/>
<circle cx="718.915" cy="429.448" r="2.64113" fill="white" fill-opacity="0.5"/>
<circle cx="414.657" cy="429.448" r="2.64113" fill="white" fill-opacity="0.5"/>
<circle cx="1023.17" cy="429.448" r="2.64113" fill="white" fill-opacity="0.5"/>
<circle cx="1479.56" cy="429.448" r="2.64113" fill="white" fill-opacity="0.5"/>
<circle cx="262.528" cy="429.448" r="2.64113" fill="white" fill-opacity="0.5"/>
<circle cx="871.044" cy="429.448" r="2.64113" fill="white" fill-opacity="0.5"/>
<circle cx="1327.43" cy="429.448" r="2.64113" fill="white" fill-opacity="0.5"/>
<circle cx="566.786" cy="429.448" r="2.64113" fill="white" fill-opacity="0.5"/>
<circle cx="1175.3" cy="429.448" r="2.64113" fill="white" fill-opacity="0.5"/>
<circle cx="34.3342" cy="750.609" r="2.64113" fill="white" fill-opacity="0.5"/>
<circle cx="642.85" cy="750.609" r="2.64113" fill="white" fill-opacity="0.5"/>
<circle cx="338.592" cy="750.609" r="2.64113" fill="white" fill-opacity="0.5"/>
<circle cx="947.108" cy="750.609" r="2.64113" fill="white" fill-opacity="0.5"/>
<circle cx="1403.5" cy="750.609" r="2.64113" fill="white" fill-opacity="0.5"/>
<circle cx="186.463" cy="750.609" r="2.64113" fill="white" fill-opacity="0.5"/>
<circle cx="794.979" cy="750.609" r="2.64113" fill="white" fill-opacity="0.5"/>
<circle cx="1251.37" cy="750.609" r="2.64113" fill="white" fill-opacity="0.5"/>
<circle cx="490.721" cy="750.609" r="2.64113" fill="white" fill-opacity="0.5"/>
<circle cx="1099.24" cy="750.609" r="2.64113" fill="white" fill-opacity="0.5"/>
<circle cx="1555.62" cy="750.609" r="2.64113" fill="white" fill-opacity="0.5"/>
<circle cx="110.399" cy="750.609" r="2.64113" fill="white" fill-opacity="0.5"/>
<circle cx="718.915" cy="750.609" r="2.64113" fill="white" fill-opacity="0.5"/>
<circle cx="414.657" cy="750.609" r="2.64113" fill="white" fill-opacity="0.5"/>
<circle cx="1023.17" cy="750.609" r="2.64113" fill="white" fill-opacity="0.5"/>
<circle cx="1479.56" cy="750.609" r="2.64113" fill="white" fill-opacity="0.5"/>
<circle cx="262.528" cy="750.609" r="2.64113" fill="white" fill-opacity="0.5"/>
<circle cx="871.044" cy="750.609" r="2.64113" fill="white" fill-opacity="0.5"/>
<circle cx="1327.43" cy="750.609" r="2.64113" fill="white" fill-opacity="0.5"/>
<circle cx="566.786" cy="750.609" r="2.64113" fill="white" fill-opacity="0.5"/>
<circle cx="1175.3" cy="750.609" r="2.64113" fill="white" fill-opacity="0.5"/>
<circle cx="34.3342" cy="268.867" r="2.64113" fill="white" fill-opacity="0.5"/>
<circle cx="642.85" cy="268.867" r="2.64113" fill="white" fill-opacity="0.5"/>
<circle cx="338.592" cy="268.867" r="2.64113" fill="white" fill-opacity="0.5"/>
<circle cx="947.108" cy="268.867" r="2.64113" fill="white" fill-opacity="0.5"/>
<circle cx="1403.5" cy="268.867" r="2.64113" fill="white" fill-opacity="0.5"/>
<circle cx="186.463" cy="268.867" r="2.64113" fill="white" fill-opacity="0.5"/>
<circle cx="794.979" cy="268.867" r="2.64113" fill="white" fill-opacity="0.5"/>
<circle cx="1251.37" cy="268.867" r="2.64113" fill="white" fill-opacity="0.5"/>
<circle cx="490.721" cy="268.867" r="2.64113" fill="white" fill-opacity="0.5"/>
<circle cx="1099.24" cy="268.867" r="2.64113" fill="white" fill-opacity="0.5"/>
<circle cx="1555.62" cy="268.867" r="2.64113" fill="white" fill-opacity="0.5"/>
<circle cx="110.399" cy="268.867" r="2.64113" fill="white" fill-opacity="0.5"/>
<circle cx="718.915" cy="268.867" r="2.64113" fill="white" fill-opacity="0.5"/>
<circle cx="414.657" cy="268.867" r="2.64113" fill="white" fill-opacity="0.5"/>
<circle cx="1023.17" cy="268.867" r="2.64113" fill="white" fill-opacity="0.5"/>
<circle cx="1479.56" cy="268.867" r="2.64113" fill="white" fill-opacity="0.5"/>
<circle cx="262.528" cy="268.867" r="2.64113" fill="white" fill-opacity="0.5"/>
<circle cx="871.044" cy="268.867" r="2.64113" fill="white" fill-opacity="0.5"/>
<circle cx="1327.43" cy="268.867" r="2.64113" fill="white" fill-opacity="0.5"/>
<circle cx="566.786" cy="268.867" r="2.64113" fill="white" fill-opacity="0.5"/>
<circle cx="1175.3" cy="268.867" r="2.64113" fill="white" fill-opacity="0.5"/>
<circle cx="34.3342" cy="590.028" r="2.64113" fill="white" fill-opacity="0.5"/>
<circle cx="642.85" cy="590.028" r="2.64113" fill="white" fill-opacity="0.5"/>
<circle cx="338.592" cy="590.028" r="2.64113" fill="white" fill-opacity="0.5"/>
<circle cx="947.108" cy="590.028" r="2.64113" fill="white" fill-opacity="0.5"/>
<circle cx="1403.5" cy="590.028" r="2.64113" fill="white" fill-opacity="0.5"/>
<circle cx="186.463" cy="590.028" r="2.64113" fill="white" fill-opacity="0.5"/>
<circle cx="794.979" cy="590.028" r="2.64113" fill="white" fill-opacity="0.5"/>
<circle cx="1251.37" cy="590.028" r="2.64113" fill="white" fill-opacity="0.5"/>
<circle cx="490.721" cy="590.028" r="2.64113" fill="white" fill-opacity="0.5"/>
<circle cx="1099.24" cy="590.028" r="2.64113" fill="white" fill-opacity="0.5"/>
<circle cx="1555.62" cy="590.028" r="2.64113" fill="white" fill-opacity="0.5"/>
<circle cx="110.399" cy="590.028" r="2.64113" fill="white" fill-opacity="0.5"/>
<circle cx="718.915" cy="590.028" r="2.64113" fill="white" fill-opacity="0.5"/>
<circle cx="414.657" cy="590.028" r="2.64113" fill="white" fill-opacity="0.5"/>
<circle cx="1023.17" cy="590.028" r="2.64113" fill="white" fill-opacity="0.5"/>
<circle cx="1479.56" cy="590.028" r="2.64113" fill="white" fill-opacity="0.5"/>
<circle cx="262.528" cy="590.028" r="2.64113" fill="white" fill-opacity="0.5"/>
<circle cx="871.044" cy="590.028" r="2.64113" fill="white" fill-opacity="0.5"/>
<circle cx="1327.43" cy="590.028" r="2.64113" fill="white" fill-opacity="0.5"/>
<circle cx="566.786" cy="590.028" r="2.64113" fill="white" fill-opacity="0.5"/>
<circle cx="1175.3" cy="590.028" r="2.64113" fill="white" fill-opacity="0.5"/>
</svg>
